<svg xmlns="http://www.w3.org/2000/svg" viewBox="0 0 512 512"><defs><style>.cls-1{fill:#f55b4b;}.cls-2{fill:#32314b;}.cls-3{fill:#27273d;}.cls-4{fill:#fff;}.cls-5{fill:#a99bd4;}.cls-6{fill:#8d82bc;}.cls-7{fill:#3e436d;}.cls-8{fill:#7cc8fb;}.cls-9{fill:#dadae5;}</style></defs><g id="BULINE"><circle class="cls-1" cx="256" cy="256" r="256"/></g><g id="Icons"><path class="cls-2" d="M272.22,408.26a23.48,23.48,0,0,1,0-47,78.27,78.27,0,0,0,0-156.54,23.48,23.48,0,0,1,0-47,125.23,125.23,0,0,1,0,250.46Z"/><path class="cls-3" d="M374.21,283a78.36,78.36,0,0,1-78.27,78.27,23.48,23.48,0,0,0-7,45.89,123.62,123.62,0,0,1-16.3,1.07,23.48,23.48,0,1,1,0-47,78.27,78.27,0,0,0,0-156.54,23.49,23.49,0,1,1,0-47,123.62,123.62,0,0,1,16.3,1.07,23.49,23.49,0,0,0,7,45.9A78.36,78.36,0,0,1,374.21,283Z"/><path class="cls-4" d="M153.51,344.78H272.22a0,0,0,0,1,0,0v33a0,0,0,0,1,0,0H153.51a11.22,11.22,0,0,1-11.22-11.22V356A11.22,11.22,0,0,1,153.51,344.78Z"/><rect class="cls-2" x="113.07" y="415.22" width="242.11" height="47.48" rx="14.35"/><path class="cls-3" d="M355.19,435.13v13.22a14.36,14.36,0,0,1-14.35,14.35H127.42a14.36,14.36,0,0,1-14.35-14.35V435.13a14.35,14.35,0,0,0,14.35,14.35H340.84A14.35,14.35,0,0,0,355.19,435.13Z"/><path class="cls-5" d="M272.22,339h0a64.18,64.18,0,0,1,64.18,64.18v12a0,0,0,0,1,0,0H208a0,0,0,0,1,0,0v-12A64.18,64.18,0,0,1,272.22,339Z"/><path class="cls-6" d="M336.4,403.22v12H208v-12a64.17,64.17,0,0,1,34-56.68,63.92,63.92,0,0,0-15.26,41.54h0a12,12,0,0,0,12,12h97.5C336.38,401.12,336.4,402.16,336.4,403.22Z"/><circle class="cls-7" cx="272.22" cy="386" r="24"/><circle class="cls-2" cx="272.22" cy="386" r="16.18"/><rect class="cls-2" x="163.95" y="335.38" width="59.48" height="9.39"/><rect class="cls-8" x="145.42" y="325.64" width="96.53" height="9.74" rx="4.87"/><path class="cls-4" d="M240.55,79.82h64.18A9.13,9.13,0,0,1,313.86,89V257.23a0,0,0,0,1,0,0H231.41a0,0,0,0,1,0,0V89a9.13,9.13,0,0,1,9.13-9.13Z" transform="translate(199.02 -143.42) rotate(45)"/><path class="cls-9" d="M250.87,248.59,239.06,260.4l-58.3-58.29,119-119a9.13,9.13,0,0,1,12.91,0L317.53,88l-87.22,87.22a37.35,37.35,0,0,0,0,52.84Z"/><rect class="cls-5" x="140.62" y="226.97" width="117.93" height="29.22" rx="9.39" transform="translate(229.28 -70.37) rotate(45)"/><rect class="cls-5" x="319.35" y="91.55" width="43.83" height="16.7" transform="translate(170.6 -212.05) rotate(45)"/><rect class="cls-7" x="315.54" y="70.84" width="82.44" height="27.13" rx="6.06" transform="translate(164.18 -227.55) rotate(45)"/></g></svg>